<?xml version="1.0" encoding="UTF-8"?>
<svg width="100px" height="100px" viewBox="0 0 100 100" version="1.1" xmlns="http://www.w3.org/2000/svg" xmlns:xlink="http://www.w3.org/1999/xlink">
    <!-- Generator: Sketch 48.2 (47327) - http://www.bohemiancoding.com/sketch -->
    <title>b1-i</title>
    <desc>Created with Sketch.</desc>
    <defs></defs>
    <g id="Symbols" stroke="none" stroke-width="1" fill="none" fill-rule="evenodd">
        <g id="b1-i">
            <g id="001-computer">
                <path d="M39.4598656,70.2222484 L39.4598656,73 L61.5398218,73 L61.5398218,70.2222484 L85,70.2222484 L85,25.7777516 C85,24.2431048 83.7648506,23 82.240025,23 L18.759975,23 C17.2351494,23 16,24.2431048 16,25.7777516 L16,70.2222484 L39.4598656,70.2222484 Z" id="Shape" fill="#38454F" fill-rule="nonzero"></path>
                <path d="M61.0345313,70 L61.0345313,72.7999683 L38.9654687,72.7999683 L38.9654687,70 L10,70 L10,74.2000317 C10,75.7469527 11.2345312,77 12.7585937,77 L87.2414063,77 C88.7654688,77 90,75.7469527 90,74.2000317 L90,70 L61.0345313,70 Z" id="Shape" fill="#B0B6BB" fill-rule="nonzero"></path>
                <polygon id="Shape" fill="#546A79" fill-rule="nonzero" points="19 68 82 68 82 26 19 26"></polygon>
                <g id="Group" transform="translate(21.000000, 57.000000)" fill="#DD691D" fill-rule="nonzero">
                    <polygon id="Shape" points="0.0974903226 7.1504 8.41242581 7.1504 8.41242581 0.08832 0.0974903226 0.08832"></polygon>
                    <polygon id="Shape" points="12.569972 7.1504 20.8849075 7.1504 20.8849075 0.08832 12.569972 0.08832"></polygon>
                    <polygon id="Shape" points="25.0424538 7.1504 33.3575462 7.1504 33.3575462 0.08832 25.0424538 0.08832"></polygon>
                    <polygon id="Shape" points="37.5150925 7.1504 45.830028 7.1504 45.830028 0.08832 37.5150925 0.08832"></polygon>
                    <polygon id="Shape" points="49.9875742 7.1504 58.3025097 7.1504 58.3025097 0.08832 49.9875742 0.08832"></polygon>
                </g>
                <g id="Group" transform="translate(21.000000, 29.000000)" fill="#ECBA16" fill-rule="nonzero">
                    <polygon id="Shape" points="0.0974903226 29.5287054 8.41242581 29.5287054 8.41242581 22.5045935 0.0974903226 22.5045935"></polygon>
                    <polygon id="Shape" points="12.569972 29.5287054 20.8849075 29.5287054 20.8849075 16.8852086 12.569972 16.8852086"></polygon>
                    <polygon id="Shape" points="25.0424538 29.5287054 33.3575462 29.5287054 33.3575462 8.45636989 25.0424538 8.45636989"></polygon>
                    <polygon id="Shape" points="37.5150925 29.5287054 45.830028 29.5287054 45.830028 18.2900946 37.5150925 18.2900946"></polygon>
                    <polygon id="Shape" points="49.9875742 29.5287054 58.3025097 29.5287054 58.3025097 0.027372043 49.9875742 0.027372043"></polygon>
                </g>
                <g id="Group" transform="translate(21.000000, 29.000000)" fill="#25AE88" fill-rule="nonzero">
                    <path d="M1.49301728,12.73936 C1.13588148,12.73936 0.778745679,12.60096 0.506785185,12.3256 C-0.0387160494,11.77328 -0.0387160494,10.88064 0.506785185,10.32848 L10.2716049,0.44144 C10.8171062,-0.11088 11.6987259,-0.11088 12.2440691,0.44144 C12.7894123,0.99376 12.7895704,1.8864 12.2440691,2.43856 L2.47924938,12.32544 C2.20728889,12.60096 1.85015309,12.73936 1.49301728,12.73936" id="Shape"></path>
                    <path d="M11.257837,9.91456 C10.4863605,9.91456 9.86279506,9.28176 9.86279506,8.50208 L9.86279506,1.44 C9.86279506,0.66032 10.4863605,0.02752 11.257837,0.02752 C12.0293136,0.02752 12.652879,0.66032 12.652879,1.44 L12.652879,8.50208 C12.652879,9.28176 12.0293136,9.91456 11.257837,9.91456" id="Shape"></path>
                    <path d="M11.257837,2.85248 L4.28294321,2.85248 C3.51146667,2.85248 2.88790123,2.21968 2.88790123,1.44 C2.88790123,0.66032 3.51146667,0.02752 4.28294321,0.02752 L11.257837,0.02752 C12.0293136,0.02752 12.652879,0.66032 12.652879,1.44 C12.652879,2.21968 12.0293136,2.85248 11.257837,2.85248" id="Shape"></path>
                </g>
                <rect id="icoph" x="0" y="0" width="100" height="100"></rect>
            </g>
        </g>
    </g>
</svg>