<?xml version="1.0" encoding="UTF-8"?>
<svg width="100px" height="100px" viewBox="0 0 100 100" version="1.1" xmlns="http://www.w3.org/2000/svg" xmlns:xlink="http://www.w3.org/1999/xlink">
    <!-- Generator: Sketch 48.2 (47327) - http://www.bohemiancoding.com/sketch -->
    <title>b2-i</title>
    <desc>Created with Sketch.</desc>
    <defs></defs>
    <g id="Symbols" stroke="none" stroke-width="1" fill="none" fill-rule="evenodd">
        <g id="b2-i">
            <g id="003-diploma">
                <path d="M10,15.1401563 L10,75.8296875 L67.9310938,75.8296875 L67.9310938,70.385625 C69.5945313,71.2145313 71.4634375,71.691875 73.4482813,71.691875 C75.433125,71.691875 77.3020312,71.2146875 78.9654687,70.385625 L78.9654687,75.8296875 L90,75.8296875 L90,15.1401563 L10,15.1401563 Z" id="Shape" fill="#724530" fill-rule="nonzero"></path>
                <path d="M85.8620313,59.2779687 C85.8620313,52.4214062 80.3048438,46.8642187 73.4482812,46.8642187 C66.5917187,46.8642187 61.0345312,52.4214062 61.0345312,59.2779687 C61.0345312,66.1345312 66.5917187,71.6917187 73.4482812,71.6917187 C80.3048438,71.6917187 85.8620313,66.1345312 85.8620313,59.2779687" id="Shape" fill="#D3B434" fill-rule="nonzero"></path>
                <g id="Group" transform="translate(65.156250, 50.937500)" fill="#F8E7A1" fill-rule="nonzero">
                    <path d="M8.29203125,16.6164063 C7.52921875,16.6164063 6.91265625,15.9998437 6.91265625,15.2370313 C6.91265625,14.4742188 7.52921875,13.8576563 8.29203125,13.8576563 C11.3348438,13.8576563 13.8092188,11.383125 13.8092188,8.34046875 C13.8092188,7.57765625 14.4257813,6.96109375 15.1885937,6.96109375 C15.9514062,6.96109375 16.5679687,7.57765625 16.5679687,8.34046875 C16.5678125,12.9046875 12.8560937,16.6164063 8.29203125,16.6164063" id="Shape"></path>
                    <path d="M1.39546875,9.71984375 C0.63265625,9.71984375 0.01609375,9.10328125 0.01609375,8.34046875 C0.01609375,3.77640625 3.7278125,0.06453125 8.29203125,0.06453125 C9.05484375,0.06453125 9.67140625,0.68109375 9.67140625,1.44390625 C9.67140625,2.20671875 9.05484375,2.82328125 8.29203125,2.82328125 C5.24921875,2.82328125 2.77484375,5.2978125 2.77484375,8.34046875 C2.77484375,9.10328125 2.15828125,9.71984375 1.39546875,9.71984375" id="Shape"></path>
                </g>
                <path d="M61.0345313,59.2779688 C61.0345313,52.4214063 66.5917188,46.8642188 73.4482813,46.8642188 C78.259375,46.8642188 82.4220313,49.60625 84.4828125,53.6076563 L84.4828125,26.1745313 C81.4359375,26.1745313 78.965625,23.7042188 78.965625,20.6573438 L21.0345313,20.6573438 C21.0345313,23.7042188 18.5642188,26.1745313 15.5173438,26.1745313 L15.5173438,64.7953125 C18.5642188,64.7953125 21.0345313,67.265625 21.0345313,70.3125 L67.7779688,70.3125 C63.7765625,68.251875 61.0345313,64.0890625 61.0345313,59.2779688" id="Shape" fill="#ECE8D8" fill-rule="nonzero"></path>
                <path d="M73.4482812,71.691875 C71.4634375,71.691875 69.5945312,71.2146875 67.9310937,70.385625 L67.9310937,85.485 L73.4482812,79.9678125 L78.9654687,85.485 L78.9654687,70.385625 C77.3020312,71.2145312 75.433125,71.691875 73.4482812,71.691875" id="Shape" fill="#F0CE49" fill-rule="nonzero"></path>
                <g id="Group" transform="translate(26.406250, 27.500000)" fill="#C9B693" fill-rule="nonzero">
                    <path d="M31.8696875,2.8125 L15.3178125,2.8125 C14.555,2.8125 13.9384375,2.1959375 13.9384375,1.433125 C13.9384375,0.6703125 14.555,0.05375 15.3178125,0.05375 L31.8695312,0.05375 C32.6323437,0.05375 33.2489062,0.6703125 33.2489062,1.433125 C33.2489062,2.1959375 32.6323437,2.8125 31.8696875,2.8125" id="Shape"></path>
                    <path d="M45.6626563,9.7090625 L1.52484375,9.7090625 C0.76203125,9.7090625 0.14546875,9.0925 0.14546875,8.3296875 C0.14546875,7.566875 0.76203125,6.9503125 1.52484375,6.9503125 L45.6628125,6.9503125 C46.425625,6.9503125 47.0421875,7.566875 47.0421875,8.3296875 C47.0420313,9.0925 46.4254688,9.7090625 45.6626563,9.7090625" id="Shape"></path>
                    <path d="M45.6626563,16.605625 L1.52484375,16.605625 C0.76203125,16.605625 0.14546875,15.9890625 0.14546875,15.22625 C0.14546875,14.4634375 0.76203125,13.846875 1.52484375,13.846875 L45.6628125,13.846875 C46.425625,13.846875 47.0421875,14.4634375 47.0421875,15.22625 C47.0421875,15.9890625 46.4254688,16.605625 45.6626563,16.605625" id="Shape"></path>
                    <path d="M29.1109375,23.5021875 L9.800625,23.5021875 C9.0378125,23.5021875 8.42125,22.885625 8.42125,22.1228125 C8.42125,21.36 9.0378125,20.7434375 9.800625,20.7434375 L29.1109375,20.7434375 C29.87375,20.7434375 30.4903125,21.36 30.4903125,22.1228125 C30.4903125,22.885625 29.87375,23.5021875 29.1109375,23.5021875" id="Shape"></path>
                    <path d="M4.2834375,23.5021875 L1.52484375,23.5021875 C0.76203125,23.5021875 0.14546875,22.885625 0.14546875,22.1228125 C0.14546875,21.36 0.76203125,20.7434375 1.52484375,20.7434375 L4.2834375,20.7434375 C5.04625,20.7434375 5.6628125,21.36 5.6628125,22.1228125 C5.6628125,22.885625 5.04609375,23.5021875 4.2834375,23.5021875" id="Shape"></path>
                    <path d="M12.5592187,30.39875 L1.5246875,30.39875 C0.761875,30.39875 0.1453125,29.7821875 0.1453125,29.019375 C0.1453125,28.2565625 0.761875,27.64 1.5246875,27.64 L12.5592187,27.64 C13.3220312,27.64 13.9385937,28.2565625 13.9385937,29.019375 C13.9385937,29.7821875 13.3220312,30.39875 12.5592187,30.39875" id="Shape"></path>
                    <path d="M29.1109375,30.39875 L18.0765625,30.39875 C17.31375,30.39875 16.6971875,29.7821875 16.6971875,29.019375 C16.6971875,28.2565625 17.31375,27.64 18.0765625,27.64 L29.1110937,27.64 C29.8739062,27.64 30.4904687,28.2565625 30.4904687,29.019375 C30.4903125,29.7821875 29.87375,30.39875 29.1109375,30.39875" id="Shape"></path>
                </g>
                <rect id="icoph" x="0" y="0" width="100" height="100"></rect>
            </g>
        </g>
    </g>
</svg>