<?xml version="1.0" encoding="UTF-8"?>
<svg width="100px" height="100px" viewBox="0 0 100 100" version="1.1" xmlns="http://www.w3.org/2000/svg" xmlns:xlink="http://www.w3.org/1999/xlink">
    <!-- Generator: Sketch 48.2 (47327) - http://www.bohemiancoding.com/sketch -->
    <title>b3-i</title>
    <desc>Created with Sketch.</desc>
    <defs></defs>
    <g id="Symbols" stroke="none" stroke-width="1" fill="none" fill-rule="evenodd">
        <g id="b3-i" fill-rule="nonzero">
            <g id="laptop">
                <path d="M38.9654688,70.03125 L38.9654688,72.7898437 L61.034375,72.7898437 L61.034375,70.03125 L84.4828125,70.03125 L84.4828125,25.8932812 C84.4828125,24.3692187 83.2482813,23.1346875 81.7242188,23.1346875 L18.2759375,23.1346875 C16.751875,23.1346875 15.5173438,24.3692187 15.5173438,25.8932812 L15.5173438,70.03125 L38.9654688,70.03125 Z" id="Shape" fill="#38454F"></path>
                <path d="M61.0345313,70.03125 L61.0345313,72.7898437 L38.9654687,72.7898437 L38.9654687,70.03125 L10,70.03125 L10,74.1692187 C10,75.6932812 11.2345312,76.9278125 12.7585937,76.9278125 L87.2414063,76.9278125 C88.7654688,76.9278125 90,75.6932812 90,74.1692188 L90,70.03125 L61.0345313,70.03125 Z" id="Shape" fill="#B0B6BB"></path>
                <polygon id="Shape" fill="#546A79" points="18.2759375 67.2726563 81.7240625 67.2726563 81.7240625 25.8932813 18.2759375 25.8932813"></polygon>
                <g id="Group" transform="translate(20.937500, 28.625000)" fill="#EA6148">
                    <path d="M56.64875,35.8890625 L35.9590625,35.8890625 C35.19625,35.8890625 34.5796875,35.2710937 34.5796875,34.5096875 C34.5796875,33.7482812 35.19625,33.1303125 35.9590625,33.1303125 L56.64875,33.1303125 C57.4115625,33.1303125 58.028125,33.7482812 58.028125,34.5096875 C58.028125,35.2710937 57.4114062,35.8890625 56.64875,35.8890625" id="Shape"></path>
                    <path d="M15.269375,27.613125 L1.47625,27.613125 C0.7134375,27.613125 0.096875,26.9951562 0.096875,26.23375 C0.096875,25.4723438 0.7134375,24.854375 1.47625,24.854375 L15.269375,24.854375 C16.0321875,24.854375 16.64875,25.4723438 16.64875,26.23375 C16.64875,26.9951562 16.0321875,27.613125 15.269375,27.613125" id="Shape"></path>
                    <path d="M49.7521875,27.613125 L29.0625,27.613125 C28.2996875,27.613125 27.683125,26.9951562 27.683125,26.23375 C27.683125,25.4723438 28.2996875,24.854375 29.0625,24.854375 L49.7521875,24.854375 C50.515,24.854375 51.1315625,25.4723438 51.1315625,26.23375 C51.1315625,26.9951562 50.5148437,27.613125 49.7521875,27.613125" id="Shape"></path>
                    <path d="M22.1659375,27.613125 C21.8073438,27.613125 21.4473438,27.4614062 21.1865625,27.213125 C20.936875,26.9510937 20.7865625,26.5925 20.7865625,26.23375 C20.7865625,26.054375 20.8279687,25.8751562 20.896875,25.7096875 C20.9657812,25.5303125 21.0623437,25.3785938 21.1865625,25.2545313 C21.696875,24.7442188 22.6210938,24.7442188 23.1451562,25.2545313 C23.3934375,25.5165625 23.5451562,25.8751562 23.5451562,26.2339062 C23.5451562,26.5926562 23.3934375,26.9510937 23.1451562,27.2132812 C23.07625,27.2684375 23.0057812,27.3373437 22.9245312,27.37875 C22.855625,27.4339062 22.7714062,27.4753125 22.69,27.5028125 C22.6059375,27.5442187 22.5245312,27.5717187 22.4265625,27.585625 C22.3453125,27.599375 22.24875,27.613125 22.1659375,27.613125" id="Shape"></path>
                    <path d="M29.0625,35.8890625 L8.3728125,35.8890625 C7.61,35.8890625 6.9934375,35.2710937 6.9934375,34.5096875 C6.9934375,33.7482812 7.61,33.1303125 8.3728125,33.1303125 L29.0625,33.1303125 C29.8253125,33.1303125 30.441875,33.7482812 30.441875,34.5096875 C30.441875,35.2710937 29.8253125,35.8890625 29.0625,35.8890625" id="Shape"></path>
                    <path d="M1.47625,35.8890625 C1.296875,35.8890625 1.11765625,35.8476562 0.9521875,35.77875 C0.78671875,35.7098437 0.635,35.6132812 0.49703125,35.4890625 C0.24734375,35.2270312 0.09703125,34.8821875 0.09703125,34.5096875 C0.09703125,34.3303125 0.1384375,34.1510938 0.20734375,33.985625 C0.27625,33.80625 0.3728125,33.6684375 0.49703125,33.5304688 C0.828125,33.2132813 1.29703125,33.0753125 1.73703125,33.158125 C1.835,33.171875 1.91640625,33.1995313 2.00046875,33.2409375 C2.081875,33.2685938 2.1659375,33.3098437 2.235,33.365 C2.31640625,33.4201563 2.38671875,33.4753125 2.455625,33.5304688 C2.5796875,33.6684375 2.67625,33.8064063 2.7453125,33.985625 C2.81421875,34.1510938 2.855625,34.3304688 2.855625,34.5096875 C2.855625,34.8820312 2.70390625,35.226875 2.455625,35.4890625 C2.38671875,35.5442187 2.31625,35.599375 2.235,35.6545312 C2.16609375,35.7096875 2.081875,35.7510937 2.00046875,35.7785937 C1.91640625,35.82 1.835,35.8475 1.73703125,35.8614062 C1.655625,35.8751562 1.5590625,35.8890625 1.47625,35.8890625" id="Shape"></path>
                    <path d="M56.64875,27.613125 C56.5646875,27.613125 56.469375,27.599375 56.3867188,27.5854687 C56.2901563,27.5717187 56.2073438,27.5440625 56.1246875,27.5026562 C56.041875,27.475 55.9592187,27.43375 55.875,27.3785937 C55.8073438,27.3234375 55.7384375,27.2682812 55.6695312,27.213125 C55.4198437,26.9510937 55.2695312,26.5925 55.2695312,26.23375 C55.2695312,25.875 55.4198437,25.5165625 55.6695312,25.254375 L55.875,25.0889063 C55.9592187,25.03375 56.041875,24.9923437 56.1246875,24.9648438 C56.2075,24.9234375 56.2901563,24.8959375 56.3867188,24.8820313 C56.828125,24.7854688 57.3095313,24.9371875 57.628125,25.254375 C57.6832813,25.3232813 57.7384375,25.3923438 57.7935938,25.475 C57.84875,25.5439062 57.88875,25.6267188 57.9176563,25.7095312 C57.9590625,25.7923437 57.9865625,25.875 57.9990625,25.9715625 C58.0142188,26.054375 58.0279688,26.1509375 58.0279688,26.2335938 C58.0279688,26.3164062 58.0142188,26.4129688 57.9990625,26.5095313 C57.9867188,26.5923438 57.9590625,26.675 57.9176563,26.7578125 C57.88875,26.840625 57.84875,26.9232813 57.7935938,27.0060938 C57.7384375,27.075 57.6832813,27.1440625 57.628125,27.2129688 C57.5592188,27.268125 57.48875,27.3232813 57.42125,27.3784375 C57.3384375,27.4335938 57.254375,27.475 57.1729688,27.5025 C57.0889063,27.5439063 57.0075,27.5714063 56.9095313,27.5853125 C56.8279688,27.599375 56.7314063,27.613125 56.64875,27.613125" id="Shape"></path>
                    <path d="M56.64875,11.0614063 L35.9590625,11.0614063 C35.19625,11.0614063 34.5796875,10.4434375 34.5796875,9.68203125 C34.5796875,8.920625 35.19625,8.30265625 35.9590625,8.30265625 L56.64875,8.30265625 C57.4115625,8.30265625 58.028125,8.920625 58.028125,9.68203125 C58.028125,10.4434375 57.4114062,11.0614063 56.64875,11.0614063" id="Shape"></path>
                    <path d="M56.64875,19.3373437 L42.855625,19.3373437 C42.0928125,19.3373437 41.47625,18.719375 41.47625,17.9579687 C41.47625,17.1965625 42.0928125,16.5785937 42.855625,16.5785937 L56.64875,16.5785937 C57.4115625,16.5785937 58.028125,17.1965625 58.028125,17.9579687 C58.0279688,18.719375 57.4114062,19.3373437 56.64875,19.3373437" id="Shape"></path>
                    <path d="M31.8210937,19.3373437 L29.0625,19.3373437 C28.2996875,19.3373437 27.683125,18.719375 27.683125,17.9579687 C27.683125,17.1965625 28.2996875,16.5785937 29.0625,16.5785937 L31.8210937,16.5785937 C32.5839062,16.5785937 33.2004687,17.1965625 33.2004687,17.9579687 C33.2004687,18.719375 32.5839062,19.3373437 31.8210937,19.3373437" id="Shape"></path>
                    <path d="M49.7521875,2.785625 L29.0625,2.785625 C28.2996875,2.785625 27.683125,2.16765625 27.683125,1.40625 C27.683125,0.64484375 28.2996875,0.026875 29.0625,0.026875 L49.7521875,0.026875 C50.515,0.026875 51.1315625,0.64484375 51.1315625,1.40625 C51.1314062,2.16765625 50.5148437,2.785625 49.7521875,2.785625" id="Shape"></path>
                    <path d="M56.64875,2.785625 C56.5646875,2.785625 56.469375,2.771875 56.3867188,2.75796875 C56.2901563,2.74421875 56.2073438,2.7165625 56.1246875,2.67515625 C56.041875,2.6475 55.9592187,2.60625 55.875,2.55109375 C55.8073438,2.4959375 55.7384375,2.44078125 55.6695312,2.385625 C55.4198437,2.12359375 55.2695312,1.765 55.2695312,1.40625 C55.2695312,1.04765625 55.4198437,0.6890625 55.6695312,0.426875 L55.875,0.26140625 C55.9592187,0.20625 56.041875,0.16484375 56.1246875,0.13734375 C56.2075,0.0959375 56.2901563,0.0684375 56.3867188,0.05453125 C56.828125,-0.04203125 57.3095313,0.1096875 57.628125,0.426875 C57.6832813,0.49578125 57.7384375,0.56484375 57.7935938,0.6475 C57.84875,0.71640625 57.88875,0.79921875 57.9176563,0.88203125 C57.9590625,0.96484375 57.9865625,1.0475 57.9990625,1.1440625 C58.0142188,1.226875 58.0279688,1.3234375 58.0279688,1.40609375 C58.0279688,1.48890625 58.0142188,1.58546875 57.9990625,1.68203125 C57.9867188,1.76484375 57.9590625,1.8475 57.9176563,1.9303125 C57.88875,2.013125 57.84875,2.09578125 57.7935938,2.17859375 C57.7384375,2.2475 57.6832813,2.3165625 57.628125,2.38546875 C57.5592188,2.440625 57.48875,2.49578125 57.42125,2.5509375 C57.3384375,2.60609375 57.254375,2.6475 57.1729688,2.675 C57.0889063,2.71640625 57.0075,2.74390625 56.9095313,2.7578125 C56.8279688,2.77171875 56.7314063,2.785625 56.64875,2.785625" id="Shape"></path>
                    <path d="M30.441875,11.0614063 C30.068125,11.0614063 29.7232812,10.9096875 29.4625,10.6614063 C29.2128125,10.399375 29.0625,10.0545313 29.0625,9.68203125 C29.0625,9.3234375 29.2128125,8.96484375 29.4625,8.70265625 C29.7796875,8.38546875 30.2625,8.23375 30.7025,8.3303125 C30.8004688,8.3440625 30.881875,8.37171875 30.9659375,8.413125 C31.0473437,8.44078125 31.1314062,8.48203125 31.2004687,8.5371875 C31.281875,8.57859375 31.3521875,8.6475 31.4073437,8.70265625 C31.669375,8.9646875 31.8210937,9.32328125 31.8210937,9.68203125 C31.8210937,10.054375 31.669375,10.3992187 31.4073437,10.6614063 C31.1590625,10.9096875 30.8142188,11.0614063 30.441875,11.0614063" id="Shape"></path>
                    <path d="M37.3384375,19.3373437 C37.241875,19.3373437 37.1590625,19.3235938 37.0625,19.3096875 C36.9796875,19.2959375 36.8970312,19.2682813 36.8142188,19.226875 C36.7314063,19.1992188 36.64875,19.1579687 36.5645313,19.1028125 C36.496875,19.0476562 36.4279687,18.9925 36.3590625,18.9373437 C36.109375,18.6753125 35.9590625,18.3304688 35.9590625,17.9579687 C35.9590625,17.599375 36.109375,17.2407812 36.3590625,16.9785937 C36.869375,16.4682813 37.8073438,16.4682813 38.3176563,16.9785937 C38.5659375,17.240625 38.7176563,17.5992187 38.7176563,17.9579687 C38.7176563,18.0545312 38.7039063,18.1373437 38.68875,18.2339062 C38.6764062,18.3167187 38.64875,18.399375 38.6073437,18.4821875 C38.5784375,18.565 38.5384375,18.6476562 38.4832813,18.7304687 C38.428125,18.799375 38.3729688,18.8684375 38.3178125,18.9373437 C38.055625,19.185625 37.6970313,19.3373437 37.3384375,19.3373437" id="Shape"></path>
                </g>
                <polygon id="Shape" fill="#ECBA16" points="22.41375 47.9623438 41.7240625 47.9623438 41.7240625 28.651875 22.41375 28.651875"></polygon>
            </g>
        </g>
    </g>
</svg>