<svg version="1" xmlns="http://www.w3.org/2000/svg" width="666.667" height="666.667" viewBox="0 0 500.000000 500.000000"><path d="M102.2 185.2l.3 13.1 44 16.4c24.2 9 46.5 17.2 49.5 18.2l5.5 1.8-4.5 1.2c-4.5 1.3-21.7 7.4-25.5 9.1-1.1.5-17.2 6.6-35.7 13.6L102 271.3v13.4c0 12.4.1 13.5 1.7 12.8 2.4-.9 98.7-42.2 103.8-44.5 2.2-1 6.9-3 10.5-4.5 3.6-1.5 6.9-3.1 7.4-3.5.7-.7 1-6.4.7-17.1l-.1-3.6-24.2-10.3c-13.4-5.7-26.3-11.2-28.8-12.3-15-6.6-69.5-29.7-70.2-29.7-.5 0-.7 5.9-.6 13.2zM270.8 328.7c-.2 1.6-.1 6.3.2 10.7l.5 7.8h57c31.4-.1 60.2-.1 64.2-.2h7.1v-21H271.1l-.3 2.7z"/></svg>