<svg width="100" height="100" xmlns="http://www.w3.org/2000/svg"><g fill="none" fill-rule="evenodd"><path d="M39.46 70.222V73h22.08v-2.778H85V25.778A2.768 2.768 0 0 0 82.24 23H18.76A2.768 2.768 0 0 0 16 25.778v44.444h23.46z" fill="#38454F" fill-rule="nonzero"/><path d="M61.035 70v2.8h-22.07V70H10v4.2c0 1.547 1.235 2.8 2.759 2.8H87.24c1.525 0 2.76-1.253 2.76-2.8V70H61.035z" fill="#B0B6BB" fill-rule="nonzero"/><path fill="#546A79" fill-rule="nonzero" d="M19 68h63V26H19z"/><path d="M21.097 64.15h8.315v-7.062h-8.315zm12.473 0h8.315v-7.062H33.57zm12.472 0h8.316v-7.062h-8.316zm12.473 0h8.315v-7.062h-8.315zm12.473 0h8.315v-7.062h-8.315z" fill="#DD691D" fill-rule="nonzero"/><path d="M21.097 58.529h8.315v-7.024h-8.315zm12.473 0h8.315V45.885H33.57zm12.472 0h8.316V37.456h-8.316zm12.473 0h8.315V47.29h-8.315zm12.473 0h8.315V29.027h-8.315z" fill="#ECBA16" fill-rule="nonzero"/><g fill="#25AE88" fill-rule="nonzero"><path d="M22.493 41.74c-.357 0-.714-.139-.986-.414a1.423 1.423 0 0 1 0-1.998l9.765-9.887a1.381 1.381 0 0 1 1.972 0 1.423 1.423 0 0 1 0 1.998l-9.765 9.886a1.38 1.38 0 0 1-.986.414"/><path d="M32.258 38.915a1.403 1.403 0 0 1-1.395-1.413V30.44c0-.78.623-1.412 1.395-1.412.771 0 1.395.632 1.395 1.412v7.062c0 .78-.624 1.413-1.395 1.413"/><path d="M32.258 31.852h-6.975a1.403 1.403 0 0 1-1.395-1.412c0-.78.623-1.412 1.395-1.412h6.975c.771 0 1.395.632 1.395 1.412 0 .78-.624 1.412-1.395 1.412"/></g><path d="M0 0h100v100H0z"/></g></svg>