<svg width="100" height="100" xmlns="http://www.w3.org/2000/svg"><g fill="none" fill-rule="evenodd"><path d="M10 15.14v60.69h57.931v-5.444a12.33 12.33 0 0 0 5.517 1.306c1.985 0 3.854-.477 5.517-1.306v5.444H90V15.14H10z" fill="#724530" fill-rule="nonzero"/><path d="M85.862 59.278c0-6.857-5.557-12.414-12.414-12.414-6.856 0-12.413 5.557-12.413 12.414 0 6.857 5.557 12.414 12.413 12.414 6.857 0 12.414-5.557 12.414-12.414" fill="#D3B434" fill-rule="nonzero"/><path d="M73.448 67.554a1.379 1.379 0 1 1 0-2.759 5.523 5.523 0 0 0 5.517-5.517 1.379 1.379 0 1 1 2.76 0c0 4.564-3.713 8.276-8.277 8.276m-6.896-6.897c-.763 0-1.38-.616-1.38-1.379 0-4.564 3.712-8.276 8.276-8.276a1.379 1.379 0 1 1 0 2.759 5.523 5.523 0 0 0-5.517 5.517c0 .763-.616 1.38-1.38 1.38" fill="#F8E7A1" fill-rule="nonzero"/><path d="M61.035 59.278c0-6.857 5.557-12.414 12.413-12.414 4.811 0 8.974 2.742 11.035 6.744V26.175a5.517 5.517 0 0 1-5.517-5.518H21.035a5.517 5.517 0 0 1-5.518 5.518v38.62a5.517 5.517 0 0 1 5.518 5.517h46.743c-4.001-2.06-6.743-6.223-6.743-11.034" fill="#ECE8D8" fill-rule="nonzero"/><path d="M73.448 71.692c-1.985 0-3.853-.477-5.517-1.306v15.099l5.517-5.517 5.517 5.517v-15.1a12.33 12.33 0 0 1-5.517 1.307" fill="#F0CE49" fill-rule="nonzero"/><path d="M58.276 30.313H41.724a1.379 1.379 0 1 1 0-2.76h16.552a1.379 1.379 0 1 1 0 2.76m13.793 6.897H27.93a1.379 1.379 0 1 1 0-2.76h44.14a1.379 1.379 0 1 1 0 2.76m-.001 6.896H27.93a1.379 1.379 0 1 1 0-2.76h44.14a1.379 1.379 0 1 1 0 2.76m-16.553 6.896h-19.31a1.378 1.378 0 1 1 0-2.759h19.31a1.379 1.379 0 1 1 0 2.76m-24.827-.001h-2.76a1.378 1.378 0 1 1 0-2.759h2.759a1.38 1.38 0 1 1 0 2.76m8.276 6.896H27.931a1.379 1.379 0 1 1 0-2.759h11.034a1.379 1.379 0 1 1 0 2.759m16.552 0H44.483a1.379 1.379 0 1 1 0-2.759h11.034a1.379 1.379 0 1 1 0 2.759" fill="#C9B693" fill-rule="nonzero"/><path d="M0 0h100v100H0z"/></g></svg>