<?xml version="1.0" encoding="UTF-8"?>
<svg width="1400px" height="112px" viewBox="0 0 1400 112" version="1.1" xmlns="http://www.w3.org/2000/svg" xmlns:xlink="http://www.w3.org/1999/xlink">
    <!-- Generator: Sketch 48.2 (47327) - http://www.bohemiancoding.com/sketch -->
    <title>Artboard</title>
    <desc>Created with Sketch.</desc>
    <defs></defs>
    <g id="Page-1" stroke="none" stroke-width="1" fill="none" fill-rule="evenodd">
        <g id="Artboard">
            <path d="M-24,63.716144 C72.3902766,31.9867819 201.767211,14.7979154 364.130802,12.1495445 C607.969976,8.17219596 744.489666,85.0352789 930.950927,63.716144 C972.350891,58.9826599 1072.36149,10.933639 1191.30788,12.1495445 C1238.19261,12.6288141 1315.46146,29.8176807 1423.11442,63.716144 L1433,220 L-24,220 L-24,63.716144 Z" id="Path-2" fill="#30404D"></path>
            <path d="M-36,9.56678559 C155.076784,51.7425101 288.976187,70.2843226 365.69821,65.1922232 C555.768286,52.5771266 759.423345,-11.7369243 886.952326,9.56678559 C1223.57465,65.7995286 1414.15043,55.2772667 1458.67966,-22 L1477,223 L-22.0051025,185.095162 L-36,9.56678559 Z" id="Path" fill="#182026"></path>
        </g>
    </g>
</svg>