
<?xml version="1.0" encoding="iso-8859-1"?>
<!-- Generator: Adobe Illustrator 19.0.0, SVG Export Plug-In . SVG Version: 6.00 Build 0)  -->
<svg version="1.1" id="Layer_1" xmlns="http://www.w3.org/2000/svg" xmlns:xlink="http://www.w3.org/1999/xlink" x="0px" y="0px"
	 viewBox="0 0 512 512" style="enable-background:new 0 0 512 512;" xml:space="preserve">
<polygon style="fill:#FFFFFF;" points="0,178.019 255.999,467.881 512,178.019 399.223,44.119 112.777,44.119 "/>
<polygon style="fill:#6FF7FF;" points="158.032,178.019 0,178.019 255.999,467.881 "/>
<polygon style="fill:#3CC8D8;" points="512,178.019 353.968,178.019 255.999,467.881 255.999,467.881 "/>
<g>
	<polygon style="fill:#52E6F8;" points="353.968,178.019 158.032,178.019 255.999,467.881 255.999,467.881 	"/>
	<polygon style="fill:#52E6F8;" points="112.777,44.119 0,178.019 158.032,178.019 	"/>
</g>
<polygon style="fill:#0CA7A6;" points="353.968,178.019 512,178.019 399.223,44.119 "/>
<polygon style="fill:#52E6F8;" points="399.223,44.119 399.223,44.119 255.998,44.119 353.968,178.019 "/>
<polygon style="fill:#6FF7FF;" points="158.032,178.019 255.998,44.119 112.777,44.119 112.777,44.119 "/>
<polygon style="fill:#3CC8D8;" points="158.032,178.019 353.968,178.019 255.998,44.119 "/>
<g>
</g>
<g>
</g>
<g>
</g>
<g>
</g>
<g>
</g>
<g>
</g>
<g>
</g>
<g>
</g>
<g>
</g>
<g>
</g>
<g>
</g>
<g>
</g>
<g>
</g>
<g>
</g>
<g>
</g>
</svg>
