<svg width="100" height="100" xmlns="http://www.w3.org/2000/svg"><g fill="none"><path d="M38.965 70.031v2.759h22.07v-2.76h23.448V25.893a2.758 2.758 0 0 0-2.759-2.758H18.276a2.758 2.758 0 0 0-2.759 2.758v44.138h23.448z" fill="#38454F"/><path d="M61.035 70.031v2.759h-22.07v-2.76H10v4.138a2.758 2.758 0 0 0 2.759 2.759H87.24A2.758 2.758 0 0 0 90 74.169v-4.138H61.035z" fill="#B0B6BB"/><path fill="#546A79" d="M18.276 67.273h63.448v-41.38H18.276z"/><path d="M77.586 64.514h-20.69a1.379 1.379 0 1 1 0-2.759h20.69a1.379 1.379 0 1 1 0 2.76m-41.379-8.277H22.414a1.379 1.379 0 1 1 0-2.759h13.793a1.379 1.379 0 1 1 0 2.76m34.483-.001H50a1.379 1.379 0 1 1 0-2.759h20.69a1.379 1.379 0 1 1 0 2.76m-27.587-.001a1.45 1.45 0 0 1-.979-.4c-.25-.262-.4-.62-.4-.98 0-.179.041-.358.11-.523.07-.18.166-.331.29-.455.51-.51 1.435-.51 1.959 0 .248.262.4.62.4.979s-.152.717-.4.98c-.07.054-.14.123-.221.165a.78.78 0 0 1-.234.124.842.842 0 0 1-.264.083 1.657 1.657 0 0 1-.26.027M50 64.514H29.31a1.379 1.379 0 1 1 0-2.759H50a1.379 1.379 0 1 1 0 2.76m-27.586-.001c-.18 0-.359-.041-.524-.11a1.59 1.59 0 0 1-.455-.29c-.25-.262-.4-.607-.4-.98 0-.179.04-.358.11-.523.069-.18.165-.318.29-.456.33-.317.8-.455 1.24-.372a.86.86 0 0 1 .263.083.786.786 0 0 1 .234.124c.082.055.152.11.221.165.124.138.22.276.29.456.069.165.11.344.11.524 0 .372-.152.717-.4.98-.069.054-.14.11-.22.165a.78.78 0 0 1-.235.124.842.842 0 0 1-.263.082 1.661 1.661 0 0 1-.261.028m55.172-8.276a1.64 1.64 0 0 1-.262-.028.83.83 0 0 1-.262-.082 1.083 1.083 0 0 1-.25-.124c-.067-.056-.136-.11-.205-.166-.25-.262-.4-.62-.4-.98 0-.358.15-.716.4-.979l.206-.165c.084-.055.166-.097.25-.124a.835.835 0 0 1 .261-.083c.442-.097.923.055 1.242.372.055.07.11.138.165.221a.795.795 0 0 1 .124.235.798.798 0 0 1 .082.262c.015.082.028.179.028.262 0 .082-.013.179-.028.276a.829.829 0 0 1-.082.248 1.097 1.097 0 0 1-.124.248l-.165.207c-.07.055-.14.11-.207.165a1.068 1.068 0 0 1-.249.124.842.842 0 0 1-.263.083 1.629 1.629 0 0 1-.26.028m-.001-16.552h-20.69a1.379 1.379 0 1 1 0-2.758h20.69a1.379 1.379 0 1 1 0 2.758m0 8.276H63.793a1.379 1.379 0 1 1 0-2.758h13.793a1.379 1.379 0 1 1 0 2.758m-24.827 0H50a1.379 1.379 0 1 1 0-2.758h2.759a1.379 1.379 0 1 1 0 2.758M70.69 31.41H50a1.379 1.379 0 1 1 0-2.758h20.69a1.379 1.379 0 1 1 0 2.759m6.896-.001c-.084 0-.18-.013-.262-.027a.83.83 0 0 1-.262-.083 1.083 1.083 0 0 1-.25-.124l-.205-.165c-.25-.262-.4-.621-.4-.98 0-.358.15-.717.4-.98l.206-.165c.084-.055.166-.096.25-.124a.835.835 0 0 1 .261-.082c.442-.097.923.055 1.242.372.055.069.11.138.165.22a.795.795 0 0 1 .124.235.798.798 0 0 1 .082.262c.015.083.028.18.028.262 0 .083-.013.18-.028.276a.829.829 0 0 1-.082.248 1.097 1.097 0 0 1-.124.249l-.165.206c-.07.056-.14.11-.207.166a1.068 1.068 0 0 1-.249.124.842.842 0 0 1-.263.083 1.647 1.647 0 0 1-.26.028M51.38 39.686a1.42 1.42 0 0 1-.98-.4c-.25-.262-.4-.606-.4-.979 0-.359.15-.717.4-.98.317-.317.8-.468 1.24-.372.098.014.18.042.263.083a.786.786 0 0 1 .235.124c.081.042.152.11.207.166.262.262.414.62.414.979 0 .372-.152.717-.414.98-.248.248-.593.4-.966.4m6.897 8.275c-.097 0-.18-.013-.276-.027a.875.875 0 0 1-.248-.083 1.083 1.083 0 0 1-.25-.124l-.205-.166c-.25-.262-.4-.607-.4-.979 0-.359.15-.717.4-.98.51-.51 1.448-.51 1.958 0 .248.263.4.621.4.98 0 .097-.014.18-.029.276a.829.829 0 0 1-.081.248 1.097 1.097 0 0 1-.124.248l-.166.207c-.262.249-.62.4-.98.4" fill="#EA6148"/><path fill="#ECBA16" d="M22.414 47.962h19.31v-19.31h-19.31z"/></g></svg>