<svg width="209" height="210" xmlns="http://www.w3.org/2000/svg"><defs><linearGradient x1="13.777%" y1="88.198%" x2="82.727%" y2="15.508%" id="a"><stop stop-color="#40BDFF" offset=".044%"/><stop stop-color="#E0DCBD" offset="100%"/></linearGradient><linearGradient x1="-95.897%" y1="205.438%" x2="471.846%" y2="-399.651%" id="b"><stop stop-color="#40BDFF" offset=".044%"/><stop stop-color="#E0DCBD" offset="100%"/></linearGradient><linearGradient x1="-221.12%" y1="338.797%" x2="346.623%" y2="-266.292%" id="c"><stop stop-color="#40BDFF" offset=".044%"/><stop stop-color="#E0DCBD" offset="100%"/></linearGradient><linearGradient x1="-300.457%" y1="421.294%" x2="268.695%" y2="-181.76%" id="d"><stop stop-color="#40BDFF" offset=".044%"/><stop stop-color="#E0DCBD" offset="100%"/></linearGradient><linearGradient x1="-197.647%" y1="311.832%" x2="370.269%" y2="-288.846%" id="e"><stop stop-color="#40BDFF" offset=".044%"/><stop stop-color="#E0DCBD" offset="100%"/></linearGradient><linearGradient x1="-45.278%" y1="148.891%" x2="218.818%" y2="-120.539%" id="f"><stop stop-color="#40BDFF" offset=".044%"/><stop stop-color="#E0DCBD" offset="100%"/></linearGradient><linearGradient x1="-120.538%" y1="230.967%" x2="258.42%" y2="-169.901%" id="g"><stop stop-color="#40BDFF" offset=".044%"/><stop stop-color="#E0DCBD" offset="100%"/></linearGradient></defs><g fill="none"><path d="M196.2 54.2c-.3-.6-.7-1.2-1-1.8-1.7-2.9-3.6-5.7-5.5-8.4-1.9-2.5-5.4-3-7.9-1.2-1.5 1.1-2.4 2.9-2.3 4.8v.1c.3 9-6.8 16.6-15.8 16.9-9 .3-16.6-6.8-16.9-15.8-.2-6 2.9-11.6 8.1-14.7 2.8-1.6 5.9-2.4 9.1-2.2 1.5.1 2.9-.3 4.1-1.3 1.2-1 1.9-2.3 2-3.8.2-1.9-.7-3.9-2.2-5.1C134.3-3.2 89.3-5.9 53.2 15 29.1 28.8 11.9 51.3 4.6 78.3c-7.2 27-3.6 55.1 10.3 79.2 19.2 33.7 54.5 52.6 90.8 52.6 17.5 0 35.2-4.4 51.5-13.7 50-28.4 67.4-92.2 39-142.2zm-42.5 136.2C107.1 216.9 47.6 200.6 21 154c-13-22.4-16.4-48.7-9.6-73.9C18.1 54.9 34.2 33.9 56.7 21c4.4-2.5 8.9-4.7 13.6-6.5-.7.7-1.3 1.5-1.9 2.2-5.9 7.6-8.6 17.1-7.4 26.7 1.2 9.6 6 18.2 13.7 24.1 6.4 5 14.3 7.6 22.3 7.6 1.8 0 3.5-.1 5.3-.4 1.9-.3 3.2-2.1 2.9-4-.3-1.9-2.1-3.2-4-2.9-7.9 1.2-16-1-22.2-5.9-12.7-9.9-15-28.3-5.1-41s28.3-15 41-5.1 15 28.3 5.1 41c-1.2 1.5-.9 3.7.6 4.9 1.5 1.2 3.7.9 4.9-.6 12.3-15.7 9.4-38.5-6.3-50.8-.8-.7-1.7-1.3-2.6-1.8 15.4 1.8 30.5 7.3 43.7 16.4-3.2.4-6.3 1.4-9.2 3.1-7.4 4.3-11.8 12.4-11.5 20.9.4 12.9 11.3 23 24.2 22.5 11.6-.4 20.9-9.2 22.4-20.3 1 1.5 2 3.1 2.9 4.7.3.6.7 1.1 1 1.7a96.86 96.86 0 0 1 12.6 43.4c-4.4-9.3-12.7-16.8-23.4-19.8-9.7-2.7-20.2-1.3-28.9 3.8-1.7 1-2.2 3.1-1.2 4.8 1 1.7 3.1 2.2 4.8 1.2 7-4.2 15.6-5.3 23.4-3.1 7.7 2.2 14.1 7.2 18 14.2 3.9 7 4.9 15.1 2.7 22.8-2.2 7.7-7.2 14.1-14.2 18-7 3.9-15.1 4.9-22.8 2.7-7.7-2.2-14.1-7.2-18-14.2-3.9-7-4.9-15.1-2.7-22.8.5-1.9-.6-3.8-2.4-4.3-1.9-.5-3.8.6-4.3 2.4-2.7 9.5-1.5 19.5 3.4 28.1 4.9 8.6 12.7 14.8 22.3 17.5 3.3.9 6.7 1.4 10.1 1.4 6.3 0 12.4-1.6 18.1-4.8 3-1.7 5.6-3.7 8-6-8.2 19.6-22.4 36.5-41.9 47.6z" fill="url(#a)" transform="translate(-1 -1)"/><path d="M66.4 132c-.3-1.9-2.1-3.2-4.1-2.8-1.9.3-3.2 2.1-2.8 4.1v.2c.4 3.1-1.7 5.9-4.8 6.4-1.5.2-3-.2-4.2-1.1-1.2-.9-2-2.2-2.2-3.7-.4-3.1 1.7-5.9 4.8-6.4 1.9-.3 3.2-2.1 3-4-.3-1.9-2.1-3.2-4-3-6.9 1-11.7 7.4-10.7 14.3.5 3.3 2.2 6.3 5 8.3 2.2 1.6 4.8 2.5 7.5 2.5.6 0 1.2 0 1.9-.1 6.9-1 11.7-7.4 10.7-14.3l-.1-.4z" fill="url(#b)" transform="translate(-1 -1)"/><path d="M50.3 77.9c6.9-1 11.7-7.4 10.7-14.3 0-.1 0-.3-.1-.4-.3-1.9-2.2-3.2-4.1-2.8-1.9.3-3.2 2.2-2.8 4.1v.2c.4 3.1-1.7 5.9-4.8 6.4-3.1.4-5.9-1.7-6.4-4.8-.4-3.1 1.7-5.9 4.8-6.4 1.9-.3 3.2-2.1 3-4-.2-1.9-2.1-3.2-4-3-6.9 1-11.7 7.4-10.7 14.3 1 6.3 6.4 10.8 12.6 10.8.6 0 1.2-.1 1.8-.1z" fill="url(#c)" transform="translate(-1 -1)"/><path d="M131.2 90.6c-.2-1.9-2-3.3-3.9-3.1-1.9.2-3.3 2-3.1 3.9v.2c.1 1.5-.3 3-1.3 4.1-1 1.1-2.3 1.9-3.8 2-1.5.1-3-.3-4.1-1.3-1.2-1-1.9-2.3-2-3.8-.1-1.5.3-3 1.3-4.1 1-1.1 2.3-1.9 3.8-2 1.9-.2 3.3-1.9 3.2-3.8-.1-1.9-1.9-3.3-3.8-3.2-3.4.3-6.4 1.9-8.5 4.5-2.2 2.6-3.2 5.9-2.9 9.2.6 6.5 6.1 11.5 12.6 11.5.4 0 .8 0 1.2-.1 3.4-.3 6.4-1.9 8.5-4.5 2.1-2.6 3.2-5.9 2.9-9.2-.1 0-.1-.1-.1-.3z" fill="url(#d)" transform="translate(-1 -1)"/><path d="M158.6 168.6c-.2-1.9-1.9-3.3-3.8-3.2-1.9.2-3.3 1.9-3.2 3.8v.2c.1 1.5-.4 3-1.4 4.1-1 1.1-2.4 1.8-3.9 1.9-3.1.2-5.8-2.1-6-5.2-.2-3.1 2.1-5.8 5.2-6 1.9-.1 3.4-1.8 3.3-3.7-.1-1.9-1.8-3.4-3.7-3.3-6.9.5-12.2 6.5-11.7 13.5.2 3.4 1.8 6.4 4.3 8.7 2.3 2 5.2 3.1 8.3 3.1h.9c3.4-.2 6.4-1.8 8.7-4.3 2.2-2.5 3.3-5.8 3.1-9.1-.1-.2-.1-.3-.1-.5z" fill="url(#e)" transform="translate(-1 -1)"/><path d="M116.1 123.3c-6.4-4-14-5.2-21.3-3.4-7.3 1.7-13.5 6.2-17.5 12.6-4 6.4-5.2 14-3.4 21.3 1.7 7.3 6.2 13.5 12.6 17.5 4.5 2.8 9.6 4.2 14.8 4.2 2.2 0 4.4-.3 6.6-.8 7.3-1.7 13.5-6.2 17.5-12.6 1-1.6.5-3.8-1.1-4.8s-3.8-.5-4.8 1.1c-6.1 10-19.2 13.1-29.2 6.9-4.8-3-8.2-7.6-9.5-13.2-1.3-5.6-.4-11.2 2.6-16 3-4.8 7.6-8.2 13.2-9.5 5.5-1.3 11.2-.4 16 2.6 3.7 2.3 6.6 5.6 8.3 9.6.8 1.8 2.8 2.6 4.6 1.8 1.8-.8 2.6-2.8 1.8-4.6-2.4-5.3-6.3-9.7-11.2-12.7z" fill="url(#f)" transform="translate(-1 -1)"/><path d="M84.7 113.8c4.3-2.7 7.2-6.9 8.3-11.9.4-1.7.5-3.5.4-5.3-.1-1.9-1.8-3.4-3.7-3.3-1.9.1-3.4 1.8-3.3 3.7.1 1.1 0 2.2-.3 3.3-1.4 6.4-7.8 10.5-14.3 9.1-6.4-1.4-10.5-7.8-9.1-14.3 1.4-6.1 7.3-10.2 13.5-9.2 1.9.3 3.7-1 4-2.9.3-1.9-1-3.7-2.9-4-9.8-1.5-19.2 4.9-21.4 14.6-2.3 10.2 4.2 20.3 14.4 22.6 1.4.3 2.8.5 4.2.5 3.7 0 7.2-1 10.2-2.9z" fill="url(#g)" transform="translate(-1 -1)"/></g></svg>